<?xml version="1.0" encoding="UTF-8"?>
<svg xmlns="http://www.w3.org/2000/svg" xmlns:xlink="http://www.w3.org/1999/xlink" width="799pt" height="154pt" viewBox="0 0 799 154" version="1.1">
<g id="surface1">
<path style=" stroke:none;fill-rule:nonzero;fill:rgb(1.960784%,47.843137%,58.823529%);fill-opacity:1;" d="M 120.050781 61.308594 C 120.050781 61.683594 120.050781 62.0625 120.050781 62.4375 C 120.050781 62.8125 120.050781 63.191406 120.050781 63.566406 C 119.800781 74.605469 116.664062 85.015625 111.144531 93.921875 C 110.894531 94.296875 110.769531 94.550781 110.515625 94.925781 C 110.265625 95.425781 109.890625 95.929688 109.640625 96.304688 C 109.261719 96.933594 108.886719 97.433594 108.386719 98.0625 C 107.882812 98.6875 107.382812 99.316406 106.878906 99.941406 C 106.753906 100.195312 106.503906 100.320312 106.378906 100.570312 C 106.125 100.820312 106 101.070312 105.75 101.324219 C 105.5 101.699219 105.125 102.074219 104.871094 102.324219 C 104.496094 102.703125 104.246094 103.078125 103.867188 103.328125 C 103.492188 103.707031 103.242188 103.957031 102.867188 104.332031 C 99.605469 107.71875 95.964844 110.730469 91.949219 113.238281 C 91.574219 113.488281 91.199219 113.742188 90.695312 113.992188 C 86.179688 116.75 81.289062 118.757812 76.144531 120.261719 C 75.769531 120.386719 75.390625 120.515625 75.015625 120.515625 C 74.261719 120.765625 73.511719 120.890625 72.757812 121.015625 C 72.253906 121.140625 71.753906 121.265625 71.378906 121.265625 C 67.992188 121.894531 64.605469 122.269531 61.089844 122.394531 C 76.898438 122.019531 90.695312 113.488281 98.476562 100.820312 C 102.613281 93.921875 105.125 85.894531 105.125 77.363281 C 105.125 72.097656 104.246094 67.078125 102.613281 62.3125 C 99.101562 52.527344 92.328125 44.25 83.546875 38.855469 C 76.898438 34.84375 69.121094 32.460938 60.839844 32.332031 C 60.589844 32.332031 60.339844 32.332031 60.085938 32.332031 C 59.835938 32.332031 59.585938 32.332031 59.335938 32.332031 C 43.402344 32.710938 30.480469 45.628906 30.105469 61.558594 C 30.230469 53.28125 32.613281 45.503906 36.628906 38.855469 C 42.023438 30.074219 50.300781 23.300781 60.085938 19.789062 C 64.730469 18.160156 69.871094 17.28125 75.140625 17.28125 C 83.796875 17.28125 91.824219 19.664062 98.601562 23.929688 C 111.144531 31.707031 119.675781 45.503906 120.050781 61.308594 Z M 120.050781 61.308594 "/>
<path style=" stroke:none;fill-rule:nonzero;fill:rgb(5.490196%,14.901961%,22.352941%);fill-opacity:1;" d="M 120.050781 61.308594 C 119.675781 45.503906 111.144531 31.707031 98.476562 23.929688 C 91.574219 19.789062 83.546875 17.28125 75.015625 17.28125 C 69.75 17.28125 64.730469 18.160156 59.960938 19.789062 C 50.179688 23.300781 41.898438 30.074219 36.503906 38.855469 C 32.488281 45.503906 30.105469 53.28125 29.980469 61.558594 C 29.980469 61.8125 29.980469 62.0625 29.980469 62.3125 C 29.980469 62.5625 29.980469 62.8125 29.980469 63.066406 C 30.230469 71.34375 33.746094 78.746094 39.265625 84.011719 C 39.640625 84.386719 39.890625 84.640625 40.269531 85.015625 C 40.644531 85.265625 41.019531 85.644531 41.398438 85.894531 C 43.277344 87.398438 45.160156 88.527344 47.417969 89.53125 C 49.300781 90.410156 51.433594 91.164062 53.441406 91.539062 C 55.195312 91.914062 57.078125 92.164062 58.960938 92.289062 C 50.804688 92.039062 43.152344 89.65625 36.628906 85.769531 C 27.847656 80.375 21.074219 72.097656 17.5625 62.3125 C 15.929688 57.671875 15.054688 52.527344 15.054688 47.261719 C 15.054688 38.605469 17.4375 30.578125 21.703125 23.804688 C 29.480469 11.136719 43.277344 2.605469 59.085938 2.230469 C 59.460938 2.230469 59.835938 2.230469 60.214844 2.230469 C 60.589844 2.230469 60.964844 2.230469 61.34375 2.230469 C 77.527344 2.480469 92.078125 9.253906 102.742188 19.789062 C 103.367188 20.417969 103.996094 21.171875 104.75 21.796875 C 105.25 22.296875 105.625 22.800781 106.128906 23.425781 C 106.253906 23.554688 106.378906 23.804688 106.628906 23.929688 C 106.878906 24.304688 107.257812 24.683594 107.507812 25.058594 C 107.757812 25.433594 108.136719 25.8125 108.386719 26.1875 C 108.886719 26.941406 109.515625 27.691406 110.015625 28.445312 C 110.265625 28.820312 110.519531 29.199219 110.769531 29.574219 C 111.019531 29.949219 111.269531 30.328125 111.523438 30.828125 C 111.773438 31.203125 112.023438 31.582031 112.273438 32.082031 C 116.917969 40.863281 119.925781 50.773438 120.050781 61.308594 Z M 120.050781 61.308594 "/>
<path style=" stroke:none;fill-rule:nonzero;fill:rgb(0%,78.039216%,78.039216%);fill-opacity:1;" d="M 102.492188 62.4375 C 104.121094 67.078125 105 72.222656 105 77.488281 C 105 86.144531 102.617188 94.171875 98.351562 100.945312 C 90.574219 113.613281 76.773438 122.144531 60.96875 122.519531 C 60.589844 122.519531 60.214844 122.519531 59.839844 122.519531 C 59.460938 122.519531 59.085938 122.519531 58.710938 122.519531 C 55.195312 122.394531 51.683594 122.144531 48.421875 121.390625 C 47.921875 121.265625 47.417969 121.140625 47.042969 121.140625 C 46.289062 121.015625 45.664062 120.765625 44.910156 120.640625 C 44.410156 120.515625 44.03125 120.386719 43.53125 120.261719 C 41.648438 119.761719 39.890625 119.132812 38.011719 118.382812 C 37.382812 118.132812 36.628906 117.878906 36.003906 117.503906 C 35.753906 117.378906 35.628906 117.253906 35.375 117.253906 C 35 117 34.5 116.875 34.121094 116.625 C 33.746094 116.375 33.242188 116.25 32.867188 116 C 32.492188 115.746094 31.988281 115.621094 31.613281 115.371094 C 31.363281 115.246094 31.238281 115.121094 30.984375 114.996094 C 30.609375 114.746094 30.109375 114.492188 29.730469 114.242188 C 28.976562 113.742188 28.101562 113.238281 27.347656 112.738281 C 25.339844 111.484375 23.457031 110.101562 21.703125 108.597656 C 20.195312 107.34375 18.816406 106.089844 17.5625 104.835938 C 6.898438 94.171875 0.25 79.621094 0 63.441406 C 0.375 79.246094 8.90625 93.042969 21.578125 100.820312 C 28.476562 104.960938 36.503906 107.46875 45.035156 107.46875 C 50.304688 107.46875 55.324219 106.589844 60.089844 104.960938 C 69.875 101.449219 78.152344 94.675781 83.546875 85.894531 C 87.5625 79.371094 89.945312 71.71875 90.070312 63.566406 C 90.070312 63.441406 90.070312 63.316406 90.070312 63.191406 C 90.070312 62.9375 90.070312 62.6875 90.070312 62.4375 C 90.070312 62.1875 90.070312 61.9375 90.070312 61.683594 C 89.945312 57.421875 88.941406 53.40625 87.3125 49.769531 C 86.308594 47.636719 85.054688 45.628906 83.671875 43.75 C 83.421875 43.371094 83.046875 42.996094 82.796875 42.621094 C 82.542969 42.242188 82.167969 41.867188 81.792969 41.617188 C 76.523438 36.097656 69.121094 32.585938 60.84375 32.332031 C 69.121094 32.460938 76.898438 34.84375 83.546875 38.855469 C 92.203125 44.375 99.101562 52.652344 102.492188 62.4375 Z M 102.492188 62.4375 "/>
<path style=" stroke:none;fill-rule:nonzero;fill:rgb(96.470588%,74.509804%,0%);fill-opacity:1;" d="M 90.070312 63.566406 C 89.820312 71.71875 87.4375 79.371094 83.546875 85.894531 C 78.152344 94.675781 69.875 101.449219 60.089844 104.960938 C 55.449219 106.589844 50.304688 107.46875 45.035156 107.46875 C 36.378906 107.46875 28.351562 105.085938 21.578125 100.820312 C 8.90625 93.042969 0.375 79.246094 0 63.441406 C 0 63.066406 0 62.6875 0 62.3125 C 0 61.9375 0 61.558594 0 61.183594 C 0.628906 28.945312 26.71875 2.855469 58.960938 2.230469 C 43.152344 2.605469 29.355469 11.136719 21.578125 23.804688 C 17.4375 30.703125 14.929688 38.730469 14.929688 47.261719 C 14.929688 52.527344 15.804688 57.546875 17.4375 62.3125 C 20.949219 72.097656 27.722656 80.375 36.503906 85.769531 C 43.027344 89.78125 50.679688 92.164062 58.835938 92.292969 C 58.960938 92.292969 59.085938 92.292969 59.210938 92.292969 C 59.460938 92.292969 59.714844 92.292969 59.964844 92.292969 C 60.214844 92.292969 60.464844 92.292969 60.714844 92.292969 C 62.722656 92.292969 64.605469 92.039062 66.488281 91.539062 C 68.621094 91.035156 70.628906 90.410156 72.507812 89.53125 C 74.640625 88.527344 76.648438 87.273438 78.53125 85.894531 C 78.90625 85.644531 79.28125 85.265625 79.660156 85.015625 C 80.035156 84.765625 80.410156 84.390625 80.664062 84.011719 C 81.039062 83.636719 81.289062 83.386719 81.667969 83.007812 C 82.042969 82.632812 82.292969 82.382812 82.667969 82.003906 C 82.921875 81.628906 83.296875 81.253906 83.546875 80.875 C 85.054688 78.996094 86.183594 77.113281 87.1875 74.855469 C 88.941406 71.59375 89.945312 67.707031 90.070312 63.566406 Z M 90.070312 63.566406 "/>
<path style=" stroke:none;fill-rule:nonzero;fill:rgb(5.490196%,14.901961%,22.352941%);fill-opacity:1;" d="M 230.542969 57.894531 L 230.421875 91.484375 C 220.683594 103.472656 208.65625 109.464844 194.339844 109.464844 C 182.4375 109.464844 172.035156 105.136719 163.128906 96.480469 C 154.140625 87.738281 149.644531 77.167969 149.644531 64.761719 C 149.644531 52.777344 154.015625 42.289062 162.753906 33.296875 C 171.492188 24.308594 182.0625 19.8125 194.464844 19.8125 C 201.539062 19.8125 207.949219 21.183594 213.691406 23.933594 C 219.351562 26.679688 223.96875 30.382812 227.546875 35.046875 L 215.8125 44.535156 C 209.488281 37.542969 202.371094 34.046875 194.464844 34.046875 C 186.808594 34.046875 179.941406 37.085938 173.867188 43.160156 C 167.707031 49.320312 164.628906 56.480469 164.628906 64.636719 C 164.628906 73.210938 167.5 80.496094 173.242188 86.488281 C 178.984375 92.484375 186.101562 95.480469 194.589844 95.480469 C 198.75 95.480469 202.746094 94.605469 206.574219 92.859375 C 210.402344 91.109375 213.648438 88.777344 216.3125 85.867188 L 216.3125 71.628906 L 194.464844 71.628906 L 194.464844 57.894531 Z M 246.574219 22.683594 C 248.40625 21.019531 250.527344 20.1875 252.941406 20.1875 C 255.355469 20.1875 257.476562 21.019531 259.308594 22.683594 C 261.054688 24.265625 261.929688 26.347656 261.929688 28.925781 C 261.929688 31.339844 261.054688 33.503906 259.308594 35.421875 C 257.5625 37.25 255.4375 38.167969 252.941406 38.167969 C 250.445312 38.167969 248.324219 37.25 246.574219 35.421875 C 244.828125 33.503906 243.953125 31.339844 243.953125 28.925781 C 243.953125 26.347656 244.828125 24.265625 246.574219 22.683594 Z M 259.683594 108.214844 L 246.199219 108.214844 L 246.199219 53.277344 L 259.683594 53.277344 Z M 302.871094 51.777344 L 302.871094 52.027344 C 310.863281 52.027344 317.769531 54.898438 323.597656 60.644531 C 329.421875 66.386719 332.335938 73.171875 332.335938 80.996094 C 332.335938 88.820312 329.421875 95.605469 323.597656 101.347656 C 317.855469 107.007812 310.945312 109.839844 302.871094 109.839844 C 294.800781 109.839844 287.890625 107.007812 282.148438 101.347656 C 276.324219 95.605469 273.410156 88.777344 273.410156 80.871094 C 273.410156 72.960938 276.324219 66.136719 282.148438 60.394531 C 287.976562 54.648438 294.882812 51.777344 302.871094 51.777344 Z M 314.234375 69.632812 C 310.988281 66.386719 307.199219 64.761719 302.871094 64.761719 C 298.546875 64.761719 294.757812 66.386719 291.511719 69.632812 C 288.265625 72.878906 286.644531 76.667969 286.644531 80.996094 C 286.644531 85.324219 288.265625 89.113281 291.511719 92.359375 C 294.757812 95.605469 298.546875 97.226562 302.871094 97.226562 C 307.199219 97.226562 310.988281 95.605469 314.234375 92.359375 C 317.480469 89.113281 319.101562 85.324219 319.101562 80.996094 C 319.101562 76.667969 317.480469 72.878906 314.234375 69.632812 Z M 361.527344 53.277344 L 374.886719 53.277344 L 374.886719 65.261719 L 361.527344 65.261719 L 361.527344 108.214844 L 348.046875 108.214844 L 348.046875 65.261719 L 337.433594 65.261719 L 361.527344 30.925781 Z M 400.664062 53.277344 L 414.023438 53.277344 L 414.023438 65.261719 L 400.664062 65.261719 L 400.664062 108.214844 L 387.179688 108.214844 L 387.179688 65.261719 L 376.570312 65.261719 L 400.664062 30.925781 Z M 449.664062 51.777344 L 449.664062 52.027344 C 457.652344 52.027344 464.558594 54.898438 470.386719 60.644531 C 476.210938 66.386719 479.125 73.171875 479.125 80.996094 C 479.125 88.820312 476.210938 95.605469 470.386719 101.347656 C 464.644531 107.007812 457.734375 109.839844 449.664062 109.839844 C 441.589844 109.839844 434.679688 107.007812 428.9375 101.347656 C 423.113281 95.605469 420.199219 88.777344 420.199219 80.871094 C 420.199219 72.960938 423.113281 66.136719 428.9375 60.394531 C 434.765625 54.648438 441.671875 51.777344 449.664062 51.777344 Z M 461.023438 69.632812 C 457.777344 66.386719 453.988281 64.761719 449.664062 64.761719 C 445.335938 64.761719 441.546875 66.386719 438.300781 69.632812 C 435.054688 72.878906 433.433594 76.667969 433.433594 80.996094 C 433.433594 85.324219 435.054688 89.113281 438.300781 92.359375 C 441.546875 95.605469 445.335938 97.226562 449.664062 97.226562 C 453.988281 97.226562 457.777344 95.605469 461.023438 92.359375 C 464.269531 89.113281 465.890625 85.324219 465.890625 80.996094 C 465.890625 76.667969 464.269531 72.878906 461.023438 69.632812 Z M 527.167969 82.371094 L 492.214844 82.371094 L 492.214844 69.132812 L 527.167969 69.132812 Z M 594.347656 108.214844 L 580.988281 108.339844 L 580.988281 100.972656 C 579.992188 103.222656 577.953125 105.261719 574.871094 107.09375 C 571.710938 108.839844 568.214844 109.714844 564.386719 109.714844 C 556.480469 109.714844 550.445312 106.882812 546.28125 101.222656 C 542.039062 95.480469 539.914062 88.695312 539.914062 80.871094 C 539.914062 73.046875 542.039062 66.261719 546.28125 60.519531 C 550.527344 54.773438 556.5625 51.902344 564.386719 51.902344 C 567.382812 51.902344 570.542969 52.734375 573.875 54.398438 C 577.203125 56.0625 579.53125 58.1875 580.863281 60.765625 L 580.863281 19.5625 L 594.347656 19.5625 Z M 567.632812 64.761719 C 563.304688 64.761719 559.808594 66.34375 557.144531 69.507812 C 554.5625 72.589844 553.273438 76.417969 553.273438 80.996094 C 553.273438 85.574219 554.5625 89.402344 557.144531 92.484375 C 559.808594 95.648438 563.304688 97.226562 567.632812 97.226562 C 571.125 97.226562 574.246094 95.605469 576.996094 92.359375 C 579.742188 89.113281 581.113281 85.324219 581.113281 80.996094 C 581.113281 76.667969 579.742188 72.878906 576.996094 69.632812 C 574.246094 66.386719 571.125 64.761719 567.632812 64.761719 Z M 652.140625 90.609375 L 661.878906 96.230469 C 659.800781 100.472656 656.554688 103.847656 652.140625 106.34375 C 647.730469 108.757812 642.570312 109.964844 636.660156 109.964844 C 628.921875 109.964844 622.179688 107.382812 616.4375 102.222656 C 610.527344 96.976562 607.574219 89.902344 607.574219 80.996094 C 607.574219 72.089844 610.320312 65.011719 615.8125 59.769531 C 621.304688 54.523438 627.546875 51.902344 634.539062 51.902344 C 642.613281 51.902344 649.105469 54.484375 654.015625 59.644531 C 658.925781 64.804688 661.378906 71.796875 661.378906 80.621094 C 661.378906 82.203125 661.253906 83.453125 661.007812 84.367188 L 620.804688 84.367188 C 621.140625 88.113281 622.886719 91.359375 626.050781 94.105469 C 629.210938 96.851562 633.082031 98.226562 637.660156 98.226562 C 640.824219 98.226562 643.734375 97.519531 646.398438 96.105469 C 648.894531 94.773438 650.808594 92.941406 652.140625 90.609375 Z M 620.929688 74.503906 L 648.523438 74.753906 C 648.105469 71.839844 646.648438 69.257812 644.152344 67.011719 C 641.65625 64.761719 638.449219 63.640625 634.539062 63.640625 C 631.375 63.640625 628.421875 64.761719 625.675781 67.011719 C 622.84375 69.257812 621.265625 71.753906 620.929688 74.503906 Z M 714.6875 90.609375 L 724.425781 96.230469 C 722.347656 100.472656 719.101562 103.847656 714.6875 106.34375 C 710.277344 108.757812 705.117188 109.964844 699.207031 109.964844 C 691.46875 109.964844 684.726562 107.382812 678.984375 102.222656 C 673.074219 96.976562 670.121094 89.902344 670.121094 80.996094 C 670.121094 72.089844 672.867188 65.011719 678.359375 59.769531 C 683.851562 54.523438 690.09375 51.902344 697.085938 51.902344 C 705.160156 51.902344 711.652344 54.484375 716.5625 59.644531 C 721.472656 64.804688 723.925781 71.796875 723.925781 80.621094 C 723.925781 82.203125 723.800781 83.453125 723.554688 84.367188 L 683.351562 84.367188 C 683.6875 88.113281 685.433594 91.359375 688.597656 94.105469 C 691.757812 96.851562 695.628906 98.226562 700.207031 98.226562 C 703.371094 98.226562 706.28125 97.519531 708.945312 96.105469 C 711.441406 94.773438 713.355469 92.941406 714.6875 90.609375 Z M 683.476562 74.503906 L 711.070312 74.753906 C 710.652344 71.839844 709.195312 69.257812 706.699219 67.011719 C 704.203125 64.761719 700.996094 63.640625 697.085938 63.640625 C 693.921875 63.640625 690.96875 64.761719 688.222656 67.011719 C 685.390625 69.257812 683.8125 71.753906 683.476562 74.503906 Z M 750.890625 53.277344 L 750.765625 60.765625 C 751.761719 58.4375 753.800781 56.355469 756.882812 54.523438 C 760.042969 52.609375 763.539062 51.652344 767.367188 51.652344 C 775.191406 51.652344 781.226562 54.523438 785.472656 60.269531 C 789.714844 66.011719 791.839844 72.796875 791.839844 80.621094 C 791.839844 88.445312 789.714844 95.230469 785.472656 100.972656 C 781.308594 106.632812 775.277344 109.464844 767.367188 109.464844 C 764.457031 109.464844 761.292969 108.675781 757.878906 107.09375 C 754.550781 105.425781 752.222656 103.304688 750.890625 100.722656 L 750.890625 138.058594 L 737.40625 138.058594 L 737.40625 53.277344 Z M 764.121094 64.511719 C 760.628906 64.511719 757.507812 66.136719 754.757812 69.382812 C 752.011719 72.628906 750.640625 76.417969 750.640625 80.746094 C 750.640625 85.074219 752.011719 88.863281 754.757812 92.109375 C 757.507812 95.355469 760.628906 96.976562 764.121094 96.976562 C 768.449219 96.976562 771.945312 95.398438 774.609375 92.234375 C 777.191406 89.152344 778.480469 85.324219 778.480469 80.746094 C 778.480469 76.167969 777.191406 72.339844 774.609375 69.257812 C 771.945312 66.09375 768.449219 64.511719 764.121094 64.511719 Z M 764.121094 64.511719 "/>
</g>
</svg>
