<svg width="192" height="37" viewBox="0 0 192 37" fill="none" xmlns="http://www.w3.org/2000/svg">
<path d="M28.8484 14.7301C28.8484 14.8205 28.8484 14.9109 28.8484 15.0013C28.8484 15.0917 28.8484 15.1821 28.8484 15.2725C28.7882 17.9246 28.0345 20.4259 26.7081 22.5656C26.6478 22.656 26.6177 22.7163 26.5574 22.8067C26.4971 22.9273 26.4067 23.0478 26.3464 23.1382C26.256 23.2889 26.1655 23.4095 26.0449 23.5601C25.9244 23.7108 25.8038 23.8615 25.6832 24.0122C25.6531 24.0725 25.5928 24.1026 25.5626 24.1629C25.5023 24.2231 25.4722 24.2834 25.4119 24.3437C25.3516 24.4341 25.2612 24.5245 25.2009 24.5848C25.1104 24.6752 25.0502 24.7656 24.9597 24.8259C24.8693 24.9163 24.809 24.9766 24.7186 25.067C23.9348 25.8807 23.0606 26.604 22.0959 27.2067C22.0055 27.267 21.9151 27.3272 21.7945 27.3875C20.7093 28.0505 19.5336 28.5327 18.2976 28.8944C18.2072 28.9245 18.1168 28.9546 18.0263 28.9546C17.8455 29.0149 17.6646 29.045 17.4837 29.0752C17.3631 29.1053 17.2426 29.1355 17.1521 29.1355C16.3382 29.2861 15.5243 29.3765 14.6802 29.4067C18.4785 29.3163 21.7945 27.267 23.6635 24.2232C24.6583 22.5656 25.2612 20.6369 25.2612 18.5876C25.2612 17.3218 25.0502 16.1163 24.6583 14.9711C23.8142 12.6205 22.1864 10.6314 20.0762 9.33556C18.4785 8.37118 16.6095 7.79859 14.6199 7.76845C14.5597 7.76845 14.4994 7.76845 14.4391 7.76845C14.3788 7.76845 14.3185 7.76845 14.2582 7.76845C10.4298 7.85886 7.32481 10.9629 7.23438 14.7903C7.26452 12.8013 7.83728 10.9328 8.80192 9.33556C10.0982 7.22598 12.0877 5.5986 14.4391 4.75477C15.5544 4.36299 16.7904 4.15203 18.0565 4.15203C20.1365 4.15203 22.0658 4.72463 23.6936 5.74928C26.7081 7.61776 28.758 10.9328 28.8484 14.7301Z" fill="#057A96"/>
<path d="M28.8487 14.7301C28.7582 10.9328 26.7084 7.61776 23.6637 5.74928C22.0057 4.75477 20.0764 4.15203 18.0266 4.15203C16.7605 4.15203 15.5547 4.36299 14.4091 4.75477C12.0578 5.5986 10.0682 7.22598 8.772 9.33556C7.80736 10.9328 7.23461 12.8013 7.20446 14.7903C7.20446 14.8506 7.20446 14.9109 7.20446 14.9711C7.20446 15.0314 7.20446 15.0917 7.20446 15.152C7.26475 17.141 8.10881 18.9191 9.4352 20.1848C9.52564 20.2752 9.58592 20.3355 9.67636 20.4259C9.76679 20.4862 9.85724 20.5766 9.94767 20.6369C10.3998 20.9985 10.852 21.2697 11.3946 21.5108C11.8468 21.7218 12.3593 21.9026 12.8416 21.993C13.2636 22.0834 13.7158 22.1437 14.168 22.1738C12.2086 22.1136 10.3697 21.541 8.80215 20.6067C6.69199 19.3109 5.06415 17.3218 4.22009 14.9711C3.8282 13.8561 3.61719 12.6205 3.61719 11.3547C3.61719 9.27529 4.18995 7.34653 5.21488 5.71914C7.08388 2.67532 10.3998 0.626026 14.1981 0.535616C14.2886 0.535616 14.379 0.535616 14.4694 0.535616C14.5599 0.535616 14.6503 0.535616 14.7407 0.535616C18.6295 0.59589 22.1263 2.22328 24.6886 4.75477C24.8394 4.90545 24.9901 5.08628 25.171 5.23696C25.2915 5.35751 25.382 5.47805 25.5026 5.62874C25.5327 5.65887 25.5629 5.71914 25.6231 5.74928C25.6834 5.83969 25.7739 5.9301 25.8342 6.02051C25.8944 6.11092 25.9849 6.20134 26.0452 6.29175C26.1658 6.47257 26.3165 6.65339 26.4371 6.83421C26.4973 6.92462 26.5576 7.01503 26.6179 7.10544C26.6782 7.19585 26.7385 7.28626 26.7988 7.40681C26.8591 7.49722 26.9194 7.58763 26.9797 7.70817C28.095 9.81775 28.8185 12.1986 28.8487 14.7301Z" fill="#0E2639"/>
<path d="M24.6286 15.0013C25.0205 16.1164 25.2315 17.352 25.2315 18.6177C25.2315 20.6972 24.6587 22.6259 23.6338 24.2533C21.7648 27.2971 18.4488 29.3464 14.6505 29.4368C14.5601 29.4368 14.4697 29.4368 14.3792 29.4368C14.2888 29.4368 14.1984 29.4368 14.1079 29.4368C13.2639 29.4067 12.4198 29.3464 11.636 29.1656C11.5154 29.1355 11.3949 29.1053 11.3044 29.1053C11.1236 29.0752 10.9728 29.0149 10.792 28.9848C10.6714 28.9547 10.5809 28.9245 10.4604 28.8944C10.0082 28.7738 9.58615 28.6232 9.13397 28.4423C8.98325 28.3821 8.80238 28.3218 8.65165 28.2314C8.59136 28.2012 8.56122 28.1711 8.50092 28.1711C8.41049 28.1108 8.28991 28.0807 8.19947 28.0204C8.10904 27.9601 7.98846 27.93 7.89802 27.8697C7.80759 27.8095 7.68701 27.7793 7.59657 27.719C7.53628 27.6889 7.50614 27.6588 7.44585 27.6286C7.35541 27.5684 7.23483 27.5081 7.14439 27.4478C6.96352 27.3273 6.75251 27.2067 6.57164 27.0862C6.08932 26.7848 5.63714 26.4533 5.21511 26.0917C4.85337 25.7903 4.52177 25.4889 4.22032 25.1875C1.65798 22.6259 0.0602903 19.13 0 15.2424C0.0904354 19.0396 2.1403 22.3547 5.18496 24.2232C6.84294 25.2177 8.77223 25.8204 10.8221 25.8204C12.0882 25.8204 13.294 25.6095 14.4395 25.2177C16.7908 24.3739 18.7804 22.7465 20.0767 20.6369C21.0413 19.0698 21.6141 17.2314 21.6442 15.2725C21.6442 15.2424 21.6442 15.2123 21.6442 15.1821C21.6442 15.1218 21.6442 15.0616 21.6442 15.0013C21.6442 14.941 21.6442 14.8808 21.6442 14.8205C21.6141 13.7958 21.3729 12.8314 20.981 11.9575C20.7398 11.4452 20.4384 10.963 20.1068 10.5109C20.0465 10.4205 19.9561 10.3301 19.8958 10.2397C19.8355 10.1493 19.7451 10.0589 19.6546 9.99858C18.3885 8.67256 16.61 7.82873 14.6204 7.76846C16.61 7.7986 18.479 8.37119 20.0767 9.33557C22.1567 10.6616 23.8146 12.6506 24.6286 15.0013Z" fill="#00C7C7"/>
<path d="M21.6442 15.2725C21.5839 17.2314 21.0112 19.0698 20.0767 20.6369C18.7804 22.7465 16.7908 24.3739 14.4395 25.2177C13.3241 25.6095 12.0882 25.8204 10.8221 25.8204C8.74209 25.8204 6.8128 25.2479 5.18496 24.2232C2.1403 22.3547 0.0904354 19.0396 0 15.2424C0 15.152 0 15.0616 0 14.9712C0 14.8808 0 14.7904 0 14.6999C0.150726 6.95477 6.42092 0.686298 14.1682 0.535614C10.3699 0.626025 7.05396 2.67533 5.18496 5.71915C4.19017 7.37668 3.58727 9.30544 3.58727 11.3547C3.58727 12.6205 3.79829 13.826 4.19018 14.9712C5.03424 17.3218 6.66207 19.3109 8.77223 20.6068C10.3398 21.5712 12.1786 22.1437 14.1381 22.1739C14.1682 22.1739 14.1984 22.1739 14.2285 22.1739C14.2888 22.1739 14.3491 22.1739 14.4094 22.1739C14.4697 22.1739 14.53 22.1739 14.5902 22.1739C15.0726 22.1739 15.5247 22.1136 15.9769 21.9931C16.4894 21.8725 16.9717 21.7218 17.4239 21.5109C17.9364 21.2698 18.4187 20.9684 18.8708 20.6369C18.9613 20.5766 19.0517 20.4862 19.1422 20.4259C19.2326 20.3657 19.323 20.2753 19.3833 20.1848C19.4738 20.0944 19.534 20.0342 19.6245 19.9438C19.7149 19.8533 19.7752 19.7931 19.8656 19.7027C19.9259 19.6123 20.0164 19.5218 20.0767 19.4314C20.4384 18.9794 20.7097 18.5273 20.9509 17.9849C21.3729 17.2013 21.6141 16.2671 21.6442 15.2725Z" fill="#F6BE00"/>
<path d="M55.4 13.91L55.37 21.98C53.03 24.86 50.14 26.3 46.7 26.3C43.84 26.3 41.34 25.26 39.2 23.18C37.04 21.08 35.96 18.54 35.96 15.56C35.96 12.68 37.01 10.16 39.11 8C41.21 5.84 43.75 4.76 46.73 4.76C48.43 4.76 49.97 5.09 51.35 5.75C52.71 6.41 53.82 7.3 54.68 8.42L51.86 10.7C50.34 9.02 48.63 8.18 46.73 8.18C44.89 8.18 43.24 8.91 41.78 10.37C40.3 11.85 39.56 13.57 39.56 15.53C39.56 17.59 40.25 19.34 41.63 20.78C43.01 22.22 44.72 22.94 46.76 22.94C47.76 22.94 48.72 22.73 49.64 22.31C50.56 21.89 51.34 21.33 51.98 20.63V17.21H46.73V13.91H55.4ZM59.252 5.45C59.692 5.05 60.202 4.85 60.782 4.85C61.362 4.85 61.872 5.05 62.312 5.45C62.732 5.83 62.942 6.33 62.942 6.95C62.942 7.53 62.732 8.05 62.312 8.51C61.892 8.95 61.382 9.17 60.782 9.17C60.182 9.17 59.672 8.95 59.252 8.51C58.832 8.05 58.622 7.53 58.622 6.95C58.622 6.33 58.832 5.83 59.252 5.45ZM62.402 26H59.162V12.8H62.402V26ZM72.7805 12.44V12.5C74.7005 12.5 76.3605 13.19 77.7605 14.57C79.1605 15.95 79.8605 17.58 79.8605 19.46C79.8605 21.34 79.1605 22.97 77.7605 24.35C76.3805 25.71 74.7205 26.39 72.7805 26.39C70.8405 26.39 69.1805 25.71 67.8005 24.35C66.4005 22.97 65.7005 21.33 65.7005 19.43C65.7005 17.53 66.4005 15.89 67.8005 14.51C69.2005 13.13 70.8605 12.44 72.7805 12.44ZM75.5105 16.73C74.7305 15.95 73.8205 15.56 72.7805 15.56C71.7405 15.56 70.8305 15.95 70.0505 16.73C69.2705 17.51 68.8805 18.42 68.8805 19.46C68.8805 20.5 69.2705 21.41 70.0505 22.19C70.8305 22.97 71.7405 23.36 72.7805 23.36C73.8205 23.36 74.7305 22.97 75.5105 22.19C76.2905 21.41 76.6805 20.5 76.6805 19.46C76.6805 18.42 76.2905 17.51 75.5105 16.73ZM86.8754 12.8H90.0854V15.68H86.8754V26H83.6354V15.68H81.0854L86.8754 7.43V12.8ZM96.2797 12.8H99.4897V15.68H96.2797V26H93.0397V15.68H90.4897L96.2797 7.43V12.8ZM108.054 12.44V12.5C109.974 12.5 111.634 13.19 113.034 14.57C114.434 15.95 115.134 17.58 115.134 19.46C115.134 21.34 114.434 22.97 113.034 24.35C111.654 25.71 109.994 26.39 108.054 26.39C106.114 26.39 104.454 25.71 103.074 24.35C101.674 22.97 100.974 21.33 100.974 19.43C100.974 17.53 101.674 15.89 103.074 14.51C104.474 13.13 106.134 12.44 108.054 12.44ZM110.784 16.73C110.004 15.95 109.094 15.56 108.054 15.56C107.014 15.56 106.104 15.95 105.324 16.73C104.544 17.51 104.154 18.42 104.154 19.46C104.154 20.5 104.544 21.41 105.324 22.19C106.104 22.97 107.014 23.36 108.054 23.36C109.094 23.36 110.004 22.97 110.784 22.19C111.564 21.41 111.954 20.5 111.954 19.46C111.954 18.42 111.564 17.51 110.784 16.73ZM126.679 19.79H118.279V16.61H126.679V19.79ZM142.822 26L139.612 26.03V24.26C139.372 24.8 138.882 25.29 138.142 25.73C137.382 26.15 136.542 26.36 135.622 26.36C133.722 26.36 132.272 25.68 131.272 24.32C130.252 22.94 129.742 21.31 129.742 19.43C129.742 17.55 130.252 15.92 131.272 14.54C132.292 13.16 133.742 12.47 135.622 12.47C136.342 12.47 137.102 12.67 137.902 13.07C138.702 13.47 139.262 13.98 139.582 14.6V4.7H142.822V26ZM136.402 15.56C135.362 15.56 134.522 15.94 133.882 16.7C133.262 17.44 132.952 18.36 132.952 19.46C132.952 20.56 133.262 21.48 133.882 22.22C134.522 22.98 135.362 23.36 136.402 23.36C137.242 23.36 137.992 22.97 138.652 22.19C139.312 21.41 139.642 20.5 139.642 19.46C139.642 18.42 139.312 17.51 138.652 16.73C137.992 15.95 137.242 15.56 136.402 15.56ZM156.71 21.77L159.05 23.12C158.55 24.14 157.77 24.95 156.71 25.55C155.65 26.13 154.41 26.42 152.99 26.42C151.13 26.42 149.51 25.8 148.13 24.56C146.71 23.3 146 21.6 146 19.46C146 17.32 146.66 15.62 147.98 14.36C149.3 13.1 150.8 12.47 152.48 12.47C154.42 12.47 155.98 13.09 157.16 14.33C158.34 15.57 158.93 17.25 158.93 19.37C158.93 19.75 158.9 20.05 158.84 20.27H149.18C149.26 21.17 149.68 21.95 150.44 22.61C151.2 23.27 152.13 23.6 153.23 23.6C153.99 23.6 154.69 23.43 155.33 23.09C155.93 22.77 156.39 22.33 156.71 21.77ZM149.21 17.9L155.84 17.96C155.74 17.26 155.39 16.64 154.79 16.1C154.19 15.56 153.42 15.29 152.48 15.29C151.72 15.29 151.01 15.56 150.35 16.1C149.67 16.64 149.29 17.24 149.21 17.9ZM171.74 21.77L174.08 23.12C173.58 24.14 172.8 24.95 171.74 25.55C170.68 26.13 169.44 26.42 168.02 26.42C166.16 26.42 164.54 25.8 163.16 24.56C161.74 23.3 161.03 21.6 161.03 19.46C161.03 17.32 161.69 15.62 163.01 14.36C164.33 13.1 165.83 12.47 167.51 12.47C169.45 12.47 171.01 13.09 172.19 14.33C173.37 15.57 173.96 17.25 173.96 19.37C173.96 19.75 173.93 20.05 173.87 20.27H164.21C164.29 21.17 164.71 21.95 165.47 22.61C166.23 23.27 167.16 23.6 168.26 23.6C169.02 23.6 169.72 23.43 170.36 23.09C170.96 22.77 171.42 22.33 171.74 21.77ZM164.24 17.9L170.87 17.96C170.77 17.26 170.42 16.64 169.82 16.1C169.22 15.56 168.45 15.29 167.51 15.29C166.75 15.29 166.04 15.56 165.38 16.1C164.7 16.64 164.32 17.24 164.24 17.9ZM180.439 12.8L180.409 14.6C180.649 14.04 181.139 13.54 181.879 13.1C182.639 12.64 183.479 12.41 184.399 12.41C186.279 12.41 187.729 13.1 188.749 14.48C189.769 15.86 190.279 17.49 190.279 19.37C190.279 21.25 189.769 22.88 188.749 24.26C187.749 25.62 186.299 26.3 184.399 26.3C183.699 26.3 182.939 26.11 182.119 25.73C181.319 25.33 180.759 24.82 180.439 24.2V33.17H177.199V12.8H180.439ZM183.619 15.5C182.779 15.5 182.029 15.89 181.369 16.67C180.709 17.45 180.379 18.36 180.379 19.4C180.379 20.44 180.709 21.35 181.369 22.13C182.029 22.91 182.779 23.3 183.619 23.3C184.659 23.3 185.499 22.92 186.139 22.16C186.759 21.42 187.069 20.5 187.069 19.4C187.069 18.3 186.759 17.38 186.139 16.64C185.499 15.88 184.659 15.5 183.619 15.5Z" fill="#0E2639"/>
</svg>
